HIERARCHY
ROOT Hips
{
	OFFSET 0.00000 0.00000 0.00000
	CHANNELS 6 Xposition Yposition Zposition Zrotation Yrotation Xrotation 
	JOINT LHipJoint
	{
		OFFSET 0 0 0
		CHANNELS 3 Zrotation Yrotation Xrotation
		JOINT LeftUpLeg
		{
			OFFSET 1.36306 -1.79463 0.83929
			CHANNELS 3 Zrotation Yrotation Xrotation
			JOINT LeftLeg
			{
				OFFSET 2.44811 -6.72613 0.00000
				CHANNELS 3 Zrotation Yrotation Xrotation
				JOINT LeftFoot
				{
					OFFSET 2.56220 -7.03959 0.00000
					CHANNELS 3 Zrotation Yrotation Xrotation
					JOINT LeftToeBase
					{
						OFFSET 0.15764 -0.43311 2.32255
						CHANNELS 3 Zrotation Yrotation Xrotation
						End Site
						{
							OFFSET 0.00000 -0.00000 1.18966
						}
					}
				}
			}
		}
	}
	JOINT RHipJoint
	{
		OFFSET 0 0 0
		CHANNELS 3 Zrotation Yrotation Xrotation
		JOINT RightUpLeg
		{
			OFFSET -1.30552 -1.79463 0.83929
			CHANNELS 3 Zrotation Yrotation Xrotation
			JOINT RightLeg
			{
				OFFSET -2.54253 -6.98555 0.00000
				CHANNELS 3 Zrotation Yrotation Xrotation
				JOINT RightFoot
				{
					OFFSET -2.56826 -7.05623 0.00000
					CHANNELS 3 Zrotation Yrotation Xrotation
					JOINT RightToeBase
					{
						OFFSET -0.16473 -0.45259 2.36315
						CHANNELS 3 Zrotation Yrotation Xrotation
						End Site
						{
							OFFSET -0.00000 -0.00000 1.21082
						}
					}
				}
			}
		}
	}
	JOINT LowerBack
	{
		OFFSET 0 0 0
		CHANNELS 3 Zrotation Yrotation Xrotation
		JOINT Spine
		{
			OFFSET 0.02827 2.03559 -0.19338
			CHANNELS 3 Zrotation Yrotation Xrotation
			JOINT Spine1
			{
				OFFSET 0.05672 2.04885 -0.04275
				CHANNELS 3 Zrotation Yrotation Xrotation
				JOINT Neck
				{
					OFFSET 0 0 0
					CHANNELS 3 Zrotation Yrotation Xrotation
					JOINT Neck1
					{
						OFFSET -0.05417 1.74624 0.17202
						CHANNELS 3 Zrotation Yrotation Xrotation
						JOINT Head
						{
							OFFSET 0.10407 1.76136 -0.12397
							CHANNELS 3 Zrotation Yrotation Xrotation
							End Site
							{
								OFFSET 0.03720 1.77044 -0.06241
							}
						}
					}
				}
				JOINT LeftShoulder
				{
					OFFSET 0 0 0
					CHANNELS 3 Zrotation Yrotation Xrotation
					JOINT LeftArm
					{
						OFFSET 3.36241 1.20089 -0.31121
						CHANNELS 3 Zrotation Yrotation Xrotation
						JOINT LeftForeArm
						{
							OFFSET 4.98300 -0.00000 -0.00000
							CHANNELS 3 Zrotation Yrotation Xrotation
							JOINT LeftHand
							{
								OFFSET 3.48356 -0.00000 -0.00000
								CHANNELS 3 Zrotation Yrotation Xrotation
								JOINT LeftFingerBase
								{
									OFFSET 0 0 0
									CHANNELS 3 Zrotation Yrotation Xrotation
									JOINT LeftHandIndex1
									{
										OFFSET 0.71526 -0.00000 -0.00000
										CHANNELS 3 Zrotation Yrotation Xrotation
										End Site
										{
											OFFSET 0.57666 -0.00000 -0.00000
										}
									}
								}
								JOINT LThumb
								{
									OFFSET 0 0 0
									CHANNELS 3 Zrotation Yrotation Xrotation
									End Site
									{
										OFFSET 0.58547 -0.00000 0.58547
									}
								}
							}
						}
					}
				}
				JOINT RightShoulder
				{
					OFFSET 0 0 0
					CHANNELS 3 Zrotation Yrotation Xrotation
					JOINT RightArm
					{
						OFFSET -3.13660 1.37405 -0.40465
						CHANNELS 3 Zrotation Yrotation Xrotation
						JOINT RightForeArm
						{
							OFFSET -5.24190 -0.00000 -0.00000
							CHANNELS 3 Zrotation Yrotation Xrotation
							JOINT RightHand
							{
								OFFSET -3.44417 -0.00000 -0.00000
								CHANNELS 3 Zrotation Yrotation Xrotation
								JOINT RightFingerBase
								{
									OFFSET 0 0 0
									CHANNELS 3 Zrotation Yrotation Xrotation
									JOINT RightHandIndex1
									{
										OFFSET -0.62253 -0.00000 -0.00000
										CHANNELS 3 Zrotation Yrotation Xrotation
										End Site
										{
											OFFSET -0.50190 -0.00000 -0.00000
										}
									}
								}
								JOINT RThumb
								{
									OFFSET 0 0 0
									CHANNELS 3 Zrotation Yrotation Xrotation
									End Site
									{
										OFFSET -0.50956 -0.00000 0.50956
									}
								}
							}
						}
					}
				}
			}
		}
	}
}
MOTION
Frames: 15
Frame Time: 0.00722022
0.00 0.00 0.00 -173.5190 -36.2790 540.3470 0.0000 0.0000 0.0000 -2.6693 -14.0208 -25.4306 3.0801 10.8235 31.6870 0.9228 -3.2372 -17.3533 0.2345 -3.1164 -8.6028 0.0000 0.0000 0.0000 29.9788 18.4672 -4.6985 -2.5608 -9.9477 28.8075 1.2614 23.6024 -5.6881 -2.9493 -10.6125 30.9840 0.0274 -3.8521 12.1385 3.1637 -5.2473 2.8511 4.0700 -2.7170 -3.4918 -13.3079 -19.5289 13.6040 18.1374 -27.8614 -3.3136 7.1371 -14.5393 1.3108 -0.0000 -0.0000 0.0000 -78.7946 8.8168 8.6010 24.2862 -35.4654 -7.8720 -0.0000 -0.0000 1.7486 13.6879 -13.5426 -3.2641 -7.1250 0.0000 -0.0000 -9.3906 16.1772 6.4912 -0.0000 -0.0000 0.0000 42.0160 26.1183 -21.8311 -85.4757 59.9225 -56.0828 0.0000 0.0000 10.6003 -14.2743 -7.7756 1.9714 7.1250 -0.0000 -0.0000 10.7174 -37.7994 1.9264
0.00 0.00 0.00 -173.7370 -24.3920 541.3840 0.0000 0.0000 0.0000 -5.4260 -11.6095 -30.1795 2.9026 10.5358 30.7297 0.3675 -12.4751 -13.0162 0.2672 -3.3250 -9.1850 0.0000 0.0000 0.0000 27.3858 16.1819 4.4849 -2.0039 -8.8742 25.4027 4.2488 35.5408 1.6246 -3.6718 -11.7103 34.7148 4.1376 -2.3266 11.9015 2.9552 -2.7728 2.6746 1.1851 -1.5390 -3.9000 -12.6204 -18.1078 8.4048 18.2278 -25.8847 -0.9676 6.5928 -13.3187 2.4144 -0.0000 0.0000 0.0000 -81.3867 7.8553 6.1417 25.9812 -37.1902 -8.8763 -0.0000 -0.0000 3.4184 10.5809 -13.3861 -2.4763 -7.1250 0.0000 -0.0000 -11.5168 16.5424 7.9243 -0.0000 0.0000 0.0000 41.6612 18.8378 -27.1781 -102.5744 59.3940 -70.8675 0.0000 0.0000 0.0093 -11.7558 -6.5271 1.3551 7.1250 -0.0000 -0.0000 12.5890 -36.3903 2.7185
0.00 0.00 0.00 -178.1110 -19.7269 542.0300 0.0000 0.0000 0.0000 -13.0592 -7.0654 -24.5328 2.7222 10.2311 29.7283 0.0761 -11.6393 -9.2127 0.1229 -2.2602 -6.2253 0.0000 0.0000 0.0000 22.3969 19.2005 1.9051 -4.6159 -12.9378 39.1360 2.9906 29.2619 16.9906 -4.0207 -12.1879 36.3999 1.4796 -1.1372 11.8686 1.5151 -1.5236 2.8299 0.9768 -0.8734 -3.6833 -12.4553 -16.5216 6.3532 17.2229 -24.2024 2.8234 6.1221 -12.3331 3.4476 0.0000 -0.0000 0.0000 -82.6558 10.4853 5.0647 29.4687 -40.4336 -11.0634 -0.0000 0.0000 -0.2198 14.3809 -14.0411 -3.5596 -7.1250 0.0000 -0.0000 -8.9148 15.6198 6.2626 0.0000 -0.0000 0.0000 41.5788 11.2445 -31.0949 -107.0119 58.8777 -74.6772 0.0000 -0.0000 -9.2835 -8.3888 -7.4723 1.0987 7.1250 -0.0000 -0.0000 15.5558 -37.1148 3.1102
0.00 0.00 0.00 -182.2490 -19.5570 542.0650 0.0000 0.0000 0.0000 -18.9269 -1.5685 -20.5874 2.1119 9.0955 26.0944 -0.3909 -15.6820 -6.2098 0.0011 -0.2163 -0.5944 0.0000 0.0000 0.0000 17.7631 19.6792 -5.1844 -8.6316 -16.5647 54.8072 1.5049 22.2696 16.2696 -1.5874 -7.9478 22.5556 -2.4111 -1.4610 12.5395 0.4894 -2.5264 3.4472 2.2560 -1.3752 -3.2847 -12.2018 -15.3004 4.4963 16.8195 -22.8359 5.3654 5.8737 -11.5460 4.2195 -0.0000 0.0000 0.0000 -83.0237 10.2411 2.9297 28.8512 -39.8881 -10.6652 -0.0000 -0.0000 0.3738 13.9430 -13.2626 -3.2599 -7.1250 0.0000 -0.0000 -9.2182 16.4421 6.3151 -0.0000 0.0000 0.0000 41.0542 9.5632 -32.0977 -107.2312 58.8478 -74.8649 0.0000 -0.0000 -14.3910 -5.8016 -7.4781 0.7576 7.1250 -0.0000 -0.0000 17.6776 -36.9533 3.6395
0.00 0.00 0.00 -183.1880 -18.3077 541.1900 0.0000 0.0000 0.0000 -21.0195 1.2470 -14.8500 1.4583 7.6325 21.6032 -0.3037 -15.0940 -6.8277 0.0072 -0.5464 -1.5013 0.0000 0.0000 0.0000 16.3039 20.9480 -13.0907 -13.5022 -18.9560 70.6782 0.7505 15.4981 9.4034 -0.7645 -5.5835 15.5805 -2.3614 -1.7840 12.4504 0.1044 -3.0192 4.0121 1.8787 -1.6626 -2.6439 -12.3843 -13.8676 2.5147 16.8641 -21.4099 8.4022 5.8298 -10.7387 5.2703 -0.0000 0.0000 0.0000 -82.8160 9.0986 2.5956 27.1002 -38.2746 -9.5611 -0.0000 -0.0000 2.1724 14.4820 -12.4236 -3.1804 -7.1250 0.0000 -0.0000 -8.8543 17.2553 5.9007 -0.0000 0.0000 0.0000 40.5795 7.7409 -32.1404 -108.2246 58.7071 -75.7144 0.0000 -0.0000 -18.5324 -3.4065 -8.1759 0.4850 7.1250 -0.0000 -0.0000 19.8049 -37.4541 3.8633
0.00 0.00 0.00 -185.1690 -17.2484 540.7650 0.0000 0.0000 0.0000 -23.6472 6.4935 -8.4859 0.5916 4.9244 13.6931 -0.5313 -15.6925 -3.9660 0.0015 0.2478 0.6809 0.0000 0.0000 0.0000 13.7257 21.3098 -23.2458 -18.8837 -19.9701 86.7347 -0.0026 12.2579 -8.6348 -0.0308 -1.1328 3.1144 -4.4140 -2.3584 13.0565 -0.1536 -4.1513 4.5311 2.9303 -2.2865 -2.2490 -11.6415 -12.4587 1.6569 16.7294 -19.5264 9.0519 5.8407 -9.7809 5.2334 -0.0000 0.0000 0.0000 -83.4535 5.2363 -0.1797 23.7880 -34.9393 -7.5848 -0.0000 -0.0000 4.8875 15.3315 -12.4328 -3.3780 -7.1250 0.0000 -0.0000 -8.2657 17.1858 5.5124 -0.0000 0.0000 0.0000 40.2420 8.2070 -31.9083 -108.0888 58.7268 -75.5984 0.0000 -0.0000 -21.1454 -1.7992 -7.9849 0.2500 7.1250 -0.0000 -0.0000 21.0533 -37.1628 4.2945
0.00 0.00 0.00 -186.3960 -8.7968 541.2710 0.0000 0.0000 0.0000 -26.1474 12.4732 -1.3535 1.0770 6.5966 18.5256 1.0221 -13.7282 -19.1552 0.1699 -2.6552 -7.3201 0.0000 0.0000 0.0000 18.5345 7.0749 -45.6098 -9.5809 -17.1674 58.0782 -0.3856 2.3501 -11.1532 -0.4335 -4.2252 11.7111 -6.7088 -4.7450 13.0322 1.1504 -7.6859 4.7542 5.9609 -4.1729 -1.2142 -9.7157 -12.6567 -4.1484 15.7349 -17.9175 11.6797 5.0363 -8.1097 6.5607 -0.0000 0.0000 0.0000 -83.0568 -7.8228 21.0808 27.9845 -39.1019 -10.1139 -0.0000 -0.0000 10.3415 12.4190 -4.7200 -1.0381 -7.1250 0.0000 -0.0000 -10.6563 25.1376 5.2063 -0.0000 0.0000 0.0000 34.8189 8.2694 -32.9917 -107.6509 58.7894 -75.2240 0.0000 -0.0000 -29.9518 -0.3310 -5.3117 0.0306 7.1250 -0.0000 -0.0000 21.5110 -34.5790 5.8536
0.00 0.00 0.00 -187.2130 3.1657 541.9250 0.0000 0.0000 0.0000 -29.3383 16.1549 0.3406 1.3079 7.2446 20.4419 1.3589 -10.2126 -21.0009 0.0161 -0.8193 -2.2519 0.0000 0.0000 0.0000 25.9761 -0.6014 -39.7679 -5.0827 -13.4763 41.1786 0.4973 -14.3086 -12.9680 -0.9369 -6.1655 17.2655 -6.5141 -4.9199 14.1651 1.3578 -7.1638 2.0460 6.3160 -3.3113 -4.7329 -11.0930 -11.3890 -2.8969 14.2437 -15.9449 10.8236 5.0921 -7.4427 5.7901 -0.0000 0.0000 0.0000 -85.2226 -6.3073 24.5411 31.6872 -42.2963 -12.5298 -0.0000 0.0000 -1.3328 27.9934 -17.9597 -9.3083 -7.1250 0.0000 -0.0000 -0.0317 9.8220 0.0259 -0.0000 0.0000 0.0000 30.4310 6.9560 -29.3984 -108.6148 58.6494 -76.0478 0.0000 -0.0000 -38.0129 5.9895 -5.9891 -0.6272 7.1250 -0.0000 -0.0000 26.5611 -34.8028 7.3246
0.00 0.00 0.00 -185.5600 8.2163 542.9230 0.0000 0.0000 0.0000 -26.5806 19.0902 -8.5131 3.9258 12.0610 35.9483 0.1701 -14.2445 -11.8811 0.0061 -0.5054 -1.3888 0.0000 0.0000 0.0000 28.8869 -2.1031 -35.2984 -4.3312 -12.5885 37.8470 -0.3768 -5.7023 -15.0907 -1.3657 -7.3964 20.8953 -3.7646 -5.3440 12.5308 1.3112 -7.0802 3.9707 4.4272 -3.3737 -2.1721 -7.6847 -11.3378 -7.4197 14.3319 -15.7504 7.9507 4.4112 -7.1600 5.3872 -0.0000 0.0000 0.0000 -83.9316 -11.0585 26.5147 34.4713 -44.4309 -14.4420 -0.0000 -0.0000 2.4655 22.4985 -9.5707 -3.9394 -7.1250 0.0000 -0.0000 -3.1867 19.6453 1.9328 -0.0000 0.0000 0.0000 29.7115 8.0497 -32.2711 -109.1691 58.5650 -76.5209 0.0000 -0.0000 -41.1172 8.9327 -6.2506 -0.9804 7.1250 -0.0000 -0.0000 28.8461 -34.8253 8.0902
0.00 0.00 0.00 -181.9080 15.1100 542.7040 0.0000 0.0000 0.0000 -19.9580 22.5533 -18.1538 8.2223 16.2804 53.3596 -0.5233 -12.9439 2.0711 0.3097 -3.5779 -9.8921 0.0000 0.0000 0.0000 32.1435 1.6249 -28.2595 -3.8763 -11.9939 35.7105 -0.7291 -1.6611 -16.8136 -2.9838 -10.6688 31.1708 -1.3683 -5.2581 12.8892 2.5685 -6.6028 4.0070 4.3924 -3.1177 -2.5043 -9.2528 -10.0765 -3.2200 14.3120 -13.8136 4.8348 5.1105 -6.5717 3.6264 0.0000 0.0000 0.0000 -84.3558 -11.5413 27.4839 33.5878 -43.7770 -13.8271 -0.0000 0.0000 -1.6292 26.9555 -17.8740 -8.8715 -7.1250 0.0000 -0.0000 -0.6988 10.0911 0.5656 0.0000 0.0000 0.0000 27.3952 9.8398 -29.9188 -107.1654 58.8568 -74.8086 0.0000 -0.0000 -42.9517 10.2815 -6.8459 -1.2387 7.1250 -0.0000 -0.0000 30.0409 -35.2474 8.1587
0.00 0.00 0.00 -180.9560 21.6652 540.9080 0.0000 0.0000 0.0000 -15.0594 17.7368 -24.1238 13.6439 19.0025 71.1140 -0.5046 -13.3663 10.1042 0.4624 -4.3619 -12.0970 0.0000 0.0000 0.0000 32.8339 -0.1480 -22.0201 -3.3465 -11.2360 33.0798 -0.5889 1.8683 -13.9754 -2.1218 -9.1153 26.1566 -0.9290 -5.6971 14.7654 2.1754 -6.9755 5.2922 3.9060 -3.2462 -2.2304 -8.6207 -8.8648 -5.6194 13.6686 -12.0942 5.3507 4.8471 -5.6311 3.8937 0.0000 0.0000 0.0000 -81.0845 -14.9678 29.6575 34.6711 -44.5758 -14.5820 -0.0000 -0.0000 0.8228 28.6351 -15.9105 -8.5129 -7.1250 0.0000 -0.0000 0.6132 11.9878 -0.4725 0.0000 0.0000 0.0000 25.3359 13.4874 -26.8192 -103.2303 59.3282 -71.4319 0.0000 -0.0000 -43.9460 12.9611 -8.0346 -1.8425 7.1250 -0.0000 -0.0000 32.4246 -36.0597 8.2490
0.00 0.00 0.00 -179.3950 30.4292 540.6860 0.0000 0.0000 0.0000 -9.5064 13.9027 -30.3397 19.0742 19.9794 87.2922 -0.0007 -5.2573 -3.6592 0.8360 5.8326 16.2994 0.0000 0.0000 0.0000 33.5121 1.2632 -14.3623 -2.3310 -9.5239 27.4482 -0.3369 5.2511 -10.4121 -2.7239 -10.2341 29.7380 1.3881 -3.9509 14.9471 1.5878 -4.4215 5.1773 1.6238 -1.9710 -2.8580 -8.0740 -8.8393 -4.8972 12.9168 -12.1414 6.1111 4.5495 -5.6778 3.9216 -0.0000 -0.0000 0.0000 -80.8086 -18.1591 32.3988 35.4441 -45.1266 -15.1272 -0.0000 -0.0000 3.6364 28.4871 -17.2293 -9.1313 -7.1250 0.0000 -0.0000 0.3722 10.5457 -0.2978 -0.0000 -0.0000 0.0000 24.0807 10.5405 -20.9011 -101.5580 59.4892 -69.9924 0.0000 -0.0000 -45.3571 10.6781 -7.9821 -1.4999 7.1250 -0.0000 -0.0000 30.7338 -36.2136 7.5555
0.00 0.00 0.00 -178.0420 42.3636 541.7150 0.0000 0.0000 0.0000 -2.3836 7.4605 -43.7769 24.8573 19.4247 104.3338 0.7476 -9.7686 -15.8704 0.7961 5.6953 15.9027 0.0000 0.0000 0.0000 32.9928 2.3999 -5.2366 -0.9878 -6.3260 17.7333 0.1360 9.7307 -4.1466 -1.3926 -7.4659 21.1032 1.3225 -3.7200 15.9019 1.6902 -4.1520 4.9134 1.7934 -1.8618 -3.6362 -5.2802 -7.1239 -8.3399 9.6357 -9.7399 6.7065 3.1699 -4.4622 4.1065 0.0000 -0.0000 0.0000 -78.3476 -23.4539 31.1899 38.4229 -47.1072 -17.2747 -0.0000 -0.0000 2.0823 27.1985 -16.6452 -8.3740 -7.1250 0.0000 -0.0000 -0.4136 11.4006 0.3237 0.0000 -0.0000 0.0000 19.5622 17.4542 -13.2237 -92.8295 59.9697 -62.4501 0.0000 -0.0000 -43.5327 13.5153 -9.8996 -2.3663 7.1250 -0.0000 -0.0000 33.5592 -37.6213 7.0993
0.00 0.00 0.00 -175.3150 56.1782 545.2290 0.0000 0.0000 0.0000 0.6346 1.0631 -67.1757 25.1388 19.3547 105.1819 -2.2986 -29.6318 -4.8276 1.7512 8.3274 23.7129 0.0000 0.0000 0.0000 30.0580 5.6838 2.0561 -0.2890 -3.4571 9.5539 0.7800 15.4969 4.0590 -1.7907 -8.4158 23.9842 3.7793 -3.1487 17.3968 2.6329 -2.8227 5.6032 1.2066 -1.1689 -3.7914 -4.7638 -5.9230 -8.3943 7.2834 -7.7651 2.6004 2.8311 -3.6768 2.8727 -0.0000 0.0000 0.0000 -74.2742 -39.3692 33.5485 41.9601 -49.1892 -19.9103 -0.0000 -0.0000 13.9462 19.2825 -23.9826 -8.0932 -7.1250 0.0000 -0.0000 -6.1582 4.8692 5.6466 -0.0000 0.0000 0.0000 10.7650 19.5698 -8.5572 -91.9436 59.9857 -61.6832 0.0000 -0.0000 -27.0398 11.3225 -15.3270 -3.0296 7.1250 -0.0000 -0.0000 34.3038 -42.4931 2.4428
0.00 0.00 0.00 -190.6090 60.3166 530.6590 0.0000 0.0000 0.0000 -9.9405 -7.9007 -65.1605 20.0140 20.0000 90.0410 -1.3311 -28.4045 -11.3706 0.0052 0.4657 1.2797 0.0000 0.0000 0.0000 20.1280 10.4864 2.3969 -0.9555 -6.2247 17.4378 0.7840 16.6355 -0.4343 -1.3260 -7.2925 20.5850 -2.7620 -1.9757 19.9467 0.7041 -2.3586 7.3370 2.8171 -0.9117 -3.0581 -7.0139 -7.4028 -10.1595 10.2832 -9.4506 1.1105 3.6823 -4.3809 2.8108 0.0000 -0.0000 0.0000 -72.3490 -50.9943 38.5890 45.7711 -51.1407 -22.8376 -0.0000 -0.0000 6.3176 21.0981 -20.9338 -7.8489 -7.1250 0.0000 -0.0000 -4.7629 7.7484 4.0918 0.0000 -0.0000 0.0000 8.9698 12.0516 -12.4212 -113.5060 57.8057 -80.2068 0.0000 -0.0000 -31.3003 17.7983 -30.5493 -9.2675 7.1250 -0.0000 -0.0000 49.9977 -53.5182 -13.0056
